<?xml version="1.0" encoding="UTF-8" standalone="no"?>
<!-- Created with Inkscape (http://www.inkscape.org/) -->

<svg
   xmlns:dc="http://purl.org/dc/elements/1.1/"
   xmlns:cc="http://creativecommons.org/ns#"
   xmlns:rdf="http://www.w3.org/1999/02/22-rdf-syntax-ns#"
   xmlns:svg="http://www.w3.org/2000/svg"
   xmlns="http://www.w3.org/2000/svg"
   xmlns:sodipodi="http://sodipodi.sourceforge.net/DTD/sodipodi-0.dtd"
   xmlns:inkscape="http://www.inkscape.org/namespaces/inkscape"
   width="200"
   height="70"
   viewBox="0 0 200.00002 69.999998"
   id="svg2"
   version="1.1"
   inkscape:version="0.91 r13725"
   sodipodi:docname="logi.svg">
  <defs
     id="defs4" />
  <sodipodi:namedview
     id="base"
     pagecolor="#ffffff"
     bordercolor="#666666"
     borderopacity="1.0"
     inkscape:pageopacity="0.0"
     inkscape:pageshadow="2"
     inkscape:zoom="2.8284271"
     inkscape:cx="170.97757"
     inkscape:cy="9.9523286"
     inkscape:document-units="px"
     inkscape:current-layer="text4136"
     showgrid="false"
     units="px"
     inkscape:window-width="1920"
     inkscape:window-height="1009"
     inkscape:window-x="0"
     inkscape:window-y="27"
     inkscape:window-maximized="1" />
  <metadata
     id="metadata7">
    <rdf:RDF>
      <cc:Work
         rdf:about="">
        <dc:format>image/svg+xml</dc:format>
        <dc:type
           rdf:resource="http://purl.org/dc/dcmitype/StillImage" />
        <dc:title></dc:title>
      </cc:Work>
    </rdf:RDF>
  </metadata>
  <g
     inkscape:label="Layer 1"
     inkscape:groupmode="layer"
     id="layer1"
     transform="translate(0,-982.3623)">
    <g
       style="font-style:normal;font-weight:normal;font-size:40px;line-height:125%;font-family:sans-serif;letter-spacing:0px;word-spacing:0px;fill:#000000;fill-opacity:1;stroke:none;stroke-width:1px;stroke-linecap:butt;stroke-linejoin:miter;stroke-opacity:1"
       id="text4136">
      <path
         d="m 44.958708,1009.1547 q -2.343751,0.3906 -3.906251,0.3906 -3.203126,0 -6.171876,-1.3672 -1.796876,4.2969 -6.015626,6.4453 -4.218751,2.1484 -10.859378,2.1484 4.531251,5.3907 6.992189,6.9141 2.460938,1.4844 4.765626,1.4844 3.671876,0 6.250001,-4.336 l 1.523438,1.211 q -3.203125,7.0312 -11.054689,7.0312 -3.320314,0 -6.210939,-1.3671 -2.890626,-1.3672 -6.093751,-4.8829 -5.5078138,-6.3672 -8.1640643,-7.0312 l 0.6250001,-2.0703 q 4.1406262,1.289 7.2265642,1.289 5.820313,0 9.648439,-3.2031 3.867188,-3.2422 3.867188,-8.3203 0,-1.7578 -0.546875,-3.4375 -0.507812,-1.67969 -1.5625,-3.16407 -1.015625,-1.52344 -2.500001,-2.69531 -1.445312,-1.21094 -3.28125,-1.91406 -1.796876,-0.74219 -2.500001,-0.74219 l -11.3671894,0 0,-3.08594 54.8828234,0 0,3.08594 -8.476565,0 0,32.81253 q 0,1.289 1.601563,2.2265 1.640626,0.8985 3.906251,0.8985 l 0,1.6015 -18.007816,0 0,-1.6015 q 1.992188,0 3.710938,-0.7813 1.718751,-0.7812 1.718751,-2.3437 l 0,-15.1953 z m 0,-3.125 0,-14.49223 -21.835942,0 q 5.976564,1.25 9.218752,4.80469 3.28125,3.55469 3.28125,8.82814 2.343751,1.6797 5.429689,1.6797 1.640625,0 3.906251,-0.8203 z"
         style="font-style:normal;font-variant:normal;font-weight:normal;font-stretch:normal;font-size:80.00001526px;font-family:Aparajita;-inkscape-font-specification:Aparajita"
         id="path4160" />
      <path
         d="m 108.51341,991.57653 -14.218754,0 0,8.59377 -12.500002,0 q -3.320313,0 -5.585939,1.1328 -2.226563,1.1328 -2.226563,2.7734 0,1.6016 2.343751,2.7735 2.382813,1.1328 5.468751,1.1328 l 4.687501,0 q 4.570313,0 7.734376,2.6172 3.203126,2.5781 3.203126,6.3672 0,5 -5.078126,8.5546 -5.078126,3.5547 -12.109378,3.5547 -8.398439,0 -14.375002,-6.25 -5.937501,-6.25 -6.718752,-15.2343 l 2.343751,-0.3907 q 0.703125,7.7344 6.250001,13.0469 5.546876,5.3125 12.890627,5.3125 4.101564,0 6.914064,-2.3828 2.851563,-2.4219 2.851563,-5.8203 0,-2.7735 -1.835937,-4.6875 -1.796876,-1.9531 -4.414064,-1.9531 l -6.640626,0 q -4.335938,0 -7.460939,-2.1875 -3.085938,-2.1875 -3.085938,-5.2344 0,-2.5781 3.046875,-4.41408 3.046876,-1.83594 7.500002,-1.83594 l 9.765627,0 0,-5.46875 -29.765631,0 0,-3.125 51.015636,0 0,3.125 z m -8.4375,16.95317 q -1.406253,0 -2.421878,-1.0157 -1.015625,-1.0156 -1.015625,-2.4218 0,-1.4063 1.015625,-2.4219 1.015625,-1.0156 2.421878,-1.0156 1.40625,0 2.42187,1.0156 1.01563,1.0156 1.01563,2.4219 0,1.4062 -1.01563,2.4218 -1.01562,1.0157 -2.42187,1.0157 z m 1.79687,20.5468 0,0 z"
         style="font-style:normal;font-variant:normal;font-weight:normal;font-stretch:normal;font-size:80.00001526px;font-family:Aparajita;-inkscape-font-specification:Aparajita"
         id="path4162" />
      <path
         d="m 103.12278,1049.3109 -7.812501,0 -17.187503,-13.2812 -2.343751,1.5625 -4.6875,0 4.6875,-3.9063 7.812502,0 19.531253,15.625 z"
         style="font-style:normal;font-variant:normal;font-weight:normal;font-stretch:normal;font-size:80.00001526px;font-family:Aparajita;-inkscape-font-specification:Aparajita"
         id="path4164" />
      <path
         d="m 119.29466,1004.8187 q -2.07032,0 -3.39844,2.2656 -1.32813,2.2266 -1.32813,4.8047 0,2.5 1.32813,4.7657 1.32812,2.2656 3.39844,2.2656 1.99218,0 3.35937,-2.1094 1.36719,-2.1094 1.36719,-4.9219 0,-2.8125 -1.32813,-4.9218 -1.32812,-2.1485 -3.39843,-2.1485 z m 23.04687,-13.28123 -19.92187,0 q 5.97656,1.09375 10,5.11719 4.0625,3.98434 4.0625,8.98434 0,6.4844 -5.03906,11.0547 -5.03907,4.5313 -12.14844,4.5313 -4.80469,0 -8.28126,-2.7735 -3.47656,-2.7734 -3.47656,-6.7187 0,-3.8281 3.08594,-6.7188 3.08594,-2.8906 7.46094,-2.8906 4.14062,0 6.79687,2.9297 2.65625,2.9297 2.65625,6.8359 l 0.3125,0 q 1.60157,-1.8359 1.60157,-6.25 0,-3.9453 -2.26563,-7.22653 -2.26562,-3.32031 -5.85937,-5.07813 -3.59375,-1.79687 -5.15626,-1.79687 l -10.54687,0 0,-3.08594 52.26563,0 0,3.08594 -8.51562,0 0,32.81253 q 0,1.4453 1.67968,2.3047 1.71875,0.8203 3.75,0.8203 l 0,1.6015 -17.89062,0 0,-1.6015 q 1.99218,0 3.71093,-0.7813 1.71875,-0.7812 1.71875,-2.3437 l 0,-5.8985 q -16.75781,13.4375 -30,13.4375 l -0.39063,-4.6484 q 13.24219,0 30.39063,-11.9922 l 0,-23.71093 z m -3.59375,37.14843 0,0 z"
         style="font-style:normal;font-variant:normal;font-weight:normal;font-stretch:normal;font-size:80.00001526px;font-family:Aparajita;-inkscape-font-specification:Aparajita"
         id="path4166" />
      <path
         d="m 197.26343,991.57653 -9.60938,0 0,8.98437 -12.1875,0 q -2.26563,0 -3.63282,0.8984 -1.36718,0.8985 -1.36718,2.2266 0,1.5625 1.95312,3.125 2.1875,-0.3906 4.29688,-0.3906 7.22656,0 11.40625,2.7734 4.21875,2.7344 4.21875,7.3828 0,4.0625 -3.28125,6.7188 -3.24219,2.6562 -7.65625,2.6562 -4.17969,0 -7.03125,-2.3437 l 0,-1.9531 q 1.60156,1.1718 4.29687,1.1718 2.69532,0 4.64844,-1.8359 1.99219,-1.875 1.99219,-4.4141 0,-3.2422 -2.73438,-5.5078 -2.69531,-2.3047 -6.64062,-2.3047 -4.6875,0 -8.20313,2.6563 -3.51563,2.6172 -3.51563,6.7187 0,4.8047 4.57032,8.2813 4.60937,3.4375 11.05469,3.4375 8.55469,0 12.5,-3.125 l -2.34375,5.4687 -10.54688,0 q -11.13281,0 -16.71875,-3.3203 -5.54688,-3.3203 -5.54688,-9.9609 0,-3.5156 2.69532,-6.4063 2.69531,-2.9297 7.07031,-4.1406 -3.90625,-1.9531 -3.90625,-5.0781 0,-2.2656 2.38281,-3.86721 2.38282,-1.60156 5.82032,-1.60156 l 9.375,0 0,-6.25 -25.62501,0 0,-3.125 42.26564,0 0,3.125 z"
         style="font-style:normal;font-variant:normal;font-weight:normal;font-stretch:normal;font-size:80.00001526px;font-family:Aparajita;-inkscape-font-specification:Aparajita"
         id="path4168" />
    </g>
  </g>
</svg>
